<svg xmlns="http://www.w3.org/2000/svg" width="475" height="136" viewBox="0 0 475 136" role="img" aria-labelledby="title"><title id="title">PRAISER: open knowledge, sustainable growth, connected research</title><g transform="translate(5 14)"><g fill="none" stroke-linecap="round" stroke-linejoin="round"><path d="M48 77C39 67 26 63 13 65V32C26 31 39 36 48 44C57 36 70 31 83 32V65C70 63 57 67 48 77Z" stroke="#153c32" stroke-width="2.5"/><path d="M48 44V77M21 57C30 57 36 59 41 63M55 63C61 59 67 57 75 57" stroke="#153c32" stroke-width="1.8"/><path d="M48 52V22M48 36L34 25M48 30L62 19" stroke="#a08245" stroke-width="2.2"/><path d="M48 24C38 22 35 15 36 8C44 9 49 15 48 24Z" fill="#a08245" stroke="#a08245" stroke-width="1.4"/><circle cx="32" cy="23" r="3.5" fill="#a08245" stroke="#a08245"/><circle cx="65" cy="17" r="3.5" fill="#a08245" stroke="#a08245"/><path d="M9 78H87" stroke="#a08245" stroke-width="1.2"/></g></g><text x="121" y="75" font-family="Georgia, 'Times New Roman', serif" font-size="48" letter-spacing="5" fill="#153c32">PRAISER</text><path d="M123 91H418" stroke="#a08245" stroke-width="1"/><text x="123" y="111" font-family="Arial, sans-serif" font-size="8.5" letter-spacing="2.25" fill="#153c32">PRACTICAL AI FOR EDUCATION &amp; RESEARCH</text></svg>